<?xml version="1.0" encoding="UTF-8"?>
<svg width="80px" height="80px" viewBox="0 0 80 80" version="1.1" xmlns="http://www.w3.org/2000/svg" xmlns:xlink="http://www.w3.org/1999/xlink">
    <!-- Generator: Sketch 43.1 (39012) - http://www.bohemiancoding.com/sketch -->
    <title>profile-user</title>
    <desc>Created with Sketch.</desc>
    <defs></defs>
    <g id="Page-1" stroke="none" stroke-width="1" fill="none" fill-rule="evenodd">
        <g id="profile-user" fill-rule="nonzero" fill="#FFFFFF">
            <path d="M39.5930435,0.00173913043 C17.7286957,0.00173913043 0,17.7269565 0,39.5930435 C0,61.4591304 17.7269565,79.1843478 39.5930435,79.1843478 C61.4608696,79.1843478 79.186087,61.4591304 79.186087,39.5930435 C79.186087,17.7269565 61.4608696,0.00173913043 39.5930435,0.00173913043 Z M39.5930435,11.84 C46.8278261,11.84 52.6904348,17.7043478 52.6904348,24.9356522 C52.6904348,32.1686957 46.8278261,38.0313043 39.5930435,38.0313043 C32.3617391,38.0313043 26.4991304,32.1686957 26.4991304,24.9356522 C26.4991304,17.7043478 32.3617391,11.84 39.5930435,11.84 Z M39.5843478,68.8330435 C32.3686957,68.8330435 25.76,66.2052174 20.6626087,61.8556522 C19.4208696,60.7965217 18.7043478,59.2434783 18.7043478,57.613913 C18.7043478,50.28 24.64,44.4104348 31.9756522,44.4104348 L47.213913,44.4104348 C54.5513043,44.4104348 60.4643478,50.28 60.4643478,57.613913 C60.4643478,59.2452174 59.7513043,60.7947826 58.5078261,61.853913 C53.4121739,66.2052174 46.8017391,68.8330435 39.5843478,68.8330435 Z" id="Shape"></path>
        </g>
    </g>
</svg>